<?xml version="1.0" encoding="utf-8"?>
<!-- Generator: Adobe Illustrator 23.0.4, SVG Export Plug-In . SVG Version: 6.00 Build 0)  -->
<svg version="1.1" id="Capa_1" xmlns="http://www.w3.org/2000/svg" xmlns:xlink="http://www.w3.org/1999/xlink" x="0px" y="0px"
	 viewBox="0 0 1000 1000" enable-background="new 0 0 1000 1000" xml:space="preserve">
<g>
	<g>
		<g>
			<linearGradient id="SVGID_1_" gradientUnits="userSpaceOnUse" x1="851.045" y1="387.9976" x2="530.0526" y2="387.9976">
				<stop  offset="0" style="stop-color:#303180"/>
				<stop  offset="0.0634" style="stop-color:#3F5199"/>
				<stop  offset="0.133" style="stop-color:#4C6CAF"/>
				<stop  offset="0.2126" style="stop-color:#5682C0"/>
				<stop  offset="0.3053" style="stop-color:#5E93CE"/>
				<stop  offset="0.4192" style="stop-color:#649FD7"/>
				<stop  offset="0.5776" style="stop-color:#67A6DC"/>
				<stop  offset="1" style="stop-color:#68A8DE"/>
			</linearGradient>
			<path fill="url(#SVGID_1_)" d="M705.419,495.322c0,0,0.851-23.98-24.398-25.746c-12.079-0.845-18.246,4.315-18.246,12.823
				c0,2.804,0.873,5.162,2.664,7.214c1.753,1.988,6.354,4.327,14.084,7.144l27.742,10.197c7.106,2.6,13.817,6.475,19.928,11.516
				c6.093,5.022,10.528,10.573,13.179,16.512c2.67,5.94,4.021,12.389,4.021,19.17c0,17.8-6.883,32.713-20.451,44.324
				c-13.606,11.643-32.05,17.545-54.814,17.545c-19.533,0-36.779-4.123-51.271-12.262c-14.123-7.934-23.426-18.05-29.188-34.193
				l47.708-11.852c4.659,12.587,15.716,18.966,32.878,18.966c7.367,0,12.81-1.434,16.168-4.257c3.416-2.855,5.149-6.182,5.149-9.885
				c0-2.39-0.688-4.531-2.052-6.367c-1.326-1.778-2.766-3.091-4.295-3.907c-1.485-0.778-8.208-3.441-19.979-7.915
				c-15.901-6.035-27.2-10.879-33.579-14.403c-6.277-3.467-11.58-8.693-15.773-15.537c-4.2-6.838-6.328-15.008-6.328-24.275
				c0-16.086,5.819-29.883,17.296-41.01c11.491-11.14,29.36-16.787,53.113-16.787c18.144,0,33.892,3.99,46.823,11.854
				c5.833,3.553,16.905,14.069,23.107,29.083l3.93-0.002l11.14,0.08l38.492-60.184l18.333,60.104h12.722
				c22.529-144.47-123.643-297.356-303.47-313.3c23.943,0,47.957,2.696,71.639,8.221c154.437,36.027,269.929,179.12,246.272,325.757
				l-0.223,1.37h-40.755L798.02,454.2l-25.13,41.115h-29.125l-4.325,0.006H705.419z"/>
		</g>
	</g>
	<linearGradient id="SVGID_2_" gradientUnits="userSpaceOnUse" x1="148.9549" y1="638.6899" x2="469.9474" y2="638.6899">
		<stop  offset="0" style="stop-color:#303180"/>
		<stop  offset="0.0028" style="stop-color:#313381"/>
		<stop  offset="0.0632" style="stop-color:#40529A"/>
		<stop  offset="0.1304" style="stop-color:#4C6DAF"/>
		<stop  offset="0.2076" style="stop-color:#5683C0"/>
		<stop  offset="0.2977" style="stop-color:#5E94CE"/>
		<stop  offset="0.4093" style="stop-color:#649FD7"/>
		<stop  offset="0.5657" style="stop-color:#67A6DD"/>
		<stop  offset="1" style="stop-color:#68A8DE"/>
	</linearGradient>
	<path fill="url(#SVGID_2_)" d="M166.477,526.727h6.196l18.333,60.104l38.492-60.184l13.021,0.079l-8.59,52.121l-6.545,40.354
		h96.328c21.509,0,37.148-5.435,46.472-16.156c9.285-10.674,13.989-23.255,13.989-37.396c0-18.551-8.954-31.648-26.627-38.965
		c10.152-2.855,18.463-7.909,24.734-15.053c6.857-7.832,10.337-17.462,10.337-28.634c0-10.178-2.932-19.189-8.706-26.799
		c-5.761-7.596-13.007-12.707-21.547-15.18c-8.419-2.435-19.355-3.665-32.515-3.665h-72.984l-10.917,67.331h-25.365l-25.13,41.115
		l-8.966-41.122h-34.229l-0.223,1.371c-23.657,146.636,91.835,289.729,246.272,325.756c23.682,5.525,47.696,8.221,71.639,8.221
		C290.12,824.082,143.948,671.197,166.477,526.727z M300.183,473.973h21.949c17.57,0,21.26,9.069,21.26,16.672
		c0,8.508-4.557,18.654-26.25,18.654h-22.688L300.183,473.973z M289.094,542.381h23.841c7.221,0,12.803,1.779,16.595,5.283
		c3.849,3.57,5.806,8.285,5.806,14.027c0,4.691-1.746,9.062-5.181,12.995c-3.511,4.015-9.725,6.054-18.482,6.054h-28.8
		L289.094,542.381z"/>
	<g>
		<g>
			<linearGradient id="SVGID_3_" gradientUnits="userSpaceOnUse" x1="569.6512" y1="653.5469" x2="585.5435" y2="470.0636">
				<stop  offset="0" style="stop-color:#68A8DE"/>
				<stop  offset="1" style="stop-color:#363E89"/>
			</linearGradient>
			<path fill="url(#SVGID_3_)" d="M582.982,456.565c6.832,0,11.409,5.58,10.222,12.463l-6.836,39.646
				c-0.122,0.705,0.349,1.276,1.05,1.276h8.387c3.425,0,5.722,2.79,5.131,6.232l-3.412,19.872c-0.591,3.442-3.85,6.232-7.28,6.232
				h-8.4c-0.703,0-1.371,0.571-1.492,1.276l-6.836,39.645c-1.187,6.883-7.724,12.463-14.601,12.463h-2.489
				c-0.704,0-1.176-0.571-1.054-1.276l23.65-136.552c0.122-0.705,0.788-1.276,1.488-1.276H582.982z"/>
			<linearGradient id="SVGID_4_" gradientUnits="userSpaceOnUse" x1="399.5034" y1="638.6307" x2="415.4056" y2="455.0323">
				<stop  offset="0" style="stop-color:#68A8DE"/>
				<stop  offset="1" style="stop-color:#363E89"/>
			</linearGradient>
			<path fill="url(#SVGID_4_)" d="M432.718,456.565c-8.164,0-16.06,6.729-17.546,14.954l-6.716,37.155
				c-0.127,0.705-0.799,1.276-1.501,1.276h-6.2c-3.425,0-6.707,2.79-7.331,6.232l-3.605,19.872c-0.624,3.442,1.65,6.232,5.08,6.232
				h6.209c1.53-0.04,1.197,0.414,1.07,1.119l-6.722,37.187c-1.499,8.293,4.053,15.079,12.339,15.079h0.518
				c0.704,0,0.86-0.571,0.987-1.276l24.455-136.552C433.882,457.137,433.417,456.565,432.718,456.565L432.718,456.565z"/>
			<linearGradient id="SVGID_5_" gradientUnits="userSpaceOnUse" x1="484.4296" y1="645.9855" x2="500.3117" y2="462.619">
				<stop  offset="0" style="stop-color:#68A8DE"/>
				<stop  offset="1" style="stop-color:#363E89"/>
			</linearGradient>
			<path fill="url(#SVGID_5_)" d="M545.563,436.441h-5.167c-4.024,0-7.864,3.29-8.577,7.348l-10.357,59.007
				c-0.48,2.737-3.077,4.955-5.8,4.955h-36.176c-2.723,0-4.536-2.218-4.05-4.955l10.484-59.007c0.718-4.042-1.974-7.348-5.981-7.348
				h-23.711c-6.798,0-10.33,3.016-11.561,9.871L417.35,604.887c-1.236,6.883,2.585,10.908,9.468,10.908h21.193
				c4.058,0,7.933-3.29,8.654-7.348l10.484-59.007c0.486-2.737,3.092-4.955,5.819-4.955h36.238c2.728,0,4.549,2.218,4.069,4.955
				l-10.357,59.007c-0.712,4.058,2,7.348,6.059,7.348h26.432c4.058,0,7.919-3.29,8.624-7.348l28.586-164.657
				c0.702-4.042-2.003-7.348-6.011-7.348H545.563z"/>
		</g>
	</g>
</g>
</svg>
